<mxfile host="app.diagrams.net" agent="Mozilla/5.0 (Windows NT 10.0; Win64; x64) AppleWebKit/537.36 (KHTML, like Gecko) Chrome/128.0.0.0 Safari/537.36 OPR/114.0.0.0" version="25.0.3">
  <diagram id="C5RBs43oDa-KdzZeNtuy" name="Page-1">
    <mxGraphModel dx="837" dy="487" grid="1" gridSize="10" guides="1" tooltips="1" connect="1" arrows="1" fold="1" page="1" pageScale="1" pageWidth="827" pageHeight="1169" math="0" shadow="0">
      <root>
        <mxCell id="WIyWlLk6GJQsqaUBKTNV-0" />
        <mxCell id="WIyWlLk6GJQsqaUBKTNV-1" parent="WIyWlLk6GJQsqaUBKTNV-0" />
        <mxCell id="5epUa7cd-4umci63JbzG-5" style="edgeStyle=orthogonalEdgeStyle;rounded=0;orthogonalLoop=1;jettySize=auto;html=1;entryX=0.5;entryY=0;entryDx=0;entryDy=0;" edge="1" parent="WIyWlLk6GJQsqaUBKTNV-1" source="5epUa7cd-4umci63JbzG-2" target="5epUa7cd-4umci63JbzG-3">
          <mxGeometry relative="1" as="geometry" />
        </mxCell>
        <mxCell id="5epUa7cd-4umci63JbzG-2" value="START" style="strokeWidth=2;html=1;shape=mxgraph.flowchart.start_2;whiteSpace=wrap;" vertex="1" parent="WIyWlLk6GJQsqaUBKTNV-1">
          <mxGeometry x="120" y="30" width="100" height="100" as="geometry" />
        </mxCell>
        <mxCell id="5epUa7cd-4umci63JbzG-6" style="edgeStyle=orthogonalEdgeStyle;rounded=0;orthogonalLoop=1;jettySize=auto;html=1;" edge="1" parent="WIyWlLk6GJQsqaUBKTNV-1" source="5epUa7cd-4umci63JbzG-3">
          <mxGeometry relative="1" as="geometry">
            <mxPoint x="170" y="350" as="targetPoint" />
          </mxGeometry>
        </mxCell>
        <mxCell id="5epUa7cd-4umci63JbzG-3" value="Input&amp;nbsp; score" style="rounded=1;whiteSpace=wrap;html=1;absoluteArcSize=1;arcSize=14;strokeWidth=2;" vertex="1" parent="WIyWlLk6GJQsqaUBKTNV-1">
          <mxGeometry x="120" y="180" width="100" height="100" as="geometry" />
        </mxCell>
        <mxCell id="5epUa7cd-4umci63JbzG-44" style="edgeStyle=orthogonalEdgeStyle;rounded=0;orthogonalLoop=1;jettySize=auto;html=1;" edge="1" parent="WIyWlLk6GJQsqaUBKTNV-1" source="5epUa7cd-4umci63JbzG-32">
          <mxGeometry relative="1" as="geometry">
            <mxPoint x="170" y="520" as="targetPoint" />
          </mxGeometry>
        </mxCell>
        <mxCell id="5epUa7cd-4umci63JbzG-32" value="score &amp;lt; 4" style="strokeWidth=2;html=1;shape=mxgraph.flowchart.decision;whiteSpace=wrap;" vertex="1" parent="WIyWlLk6GJQsqaUBKTNV-1">
          <mxGeometry x="120" y="350" width="100" height="100" as="geometry" />
        </mxCell>
        <mxCell id="5epUa7cd-4umci63JbzG-34" value="True" style="text;html=1;align=center;verticalAlign=middle;resizable=0;points=[];autosize=1;strokeColor=none;fillColor=none;" vertex="1" parent="WIyWlLk6GJQsqaUBKTNV-1">
          <mxGeometry x="245" y="360" width="50" height="30" as="geometry" />
        </mxCell>
        <mxCell id="5epUa7cd-4umci63JbzG-67" style="edgeStyle=orthogonalEdgeStyle;rounded=0;orthogonalLoop=1;jettySize=auto;html=1;entryX=0.5;entryY=0;entryDx=0;entryDy=0;entryPerimeter=0;" edge="1" parent="WIyWlLk6GJQsqaUBKTNV-1" source="5epUa7cd-4umci63JbzG-35" target="5epUa7cd-4umci63JbzG-70">
          <mxGeometry relative="1" as="geometry">
            <mxPoint x="720" y="680" as="targetPoint" />
          </mxGeometry>
        </mxCell>
        <mxCell id="5epUa7cd-4umci63JbzG-35" value="Print &quot;Không đạt&quot;" style="strokeWidth=2;html=1;shape=mxgraph.flowchart.display;whiteSpace=wrap;" vertex="1" parent="WIyWlLk6GJQsqaUBKTNV-1">
          <mxGeometry x="355" y="370" width="110" height="60" as="geometry" />
        </mxCell>
        <mxCell id="5epUa7cd-4umci63JbzG-38" value="False" style="text;html=1;align=center;verticalAlign=middle;resizable=0;points=[];autosize=1;strokeColor=none;fillColor=none;" vertex="1" parent="WIyWlLk6GJQsqaUBKTNV-1">
          <mxGeometry x="170" y="470" width="50" height="30" as="geometry" />
        </mxCell>
        <mxCell id="5epUa7cd-4umci63JbzG-45" style="edgeStyle=orthogonalEdgeStyle;rounded=0;orthogonalLoop=1;jettySize=auto;html=1;" edge="1" parent="WIyWlLk6GJQsqaUBKTNV-1" source="5epUa7cd-4umci63JbzG-42">
          <mxGeometry relative="1" as="geometry">
            <mxPoint x="360" y="570" as="targetPoint" />
          </mxGeometry>
        </mxCell>
        <mxCell id="5epUa7cd-4umci63JbzG-48" style="edgeStyle=orthogonalEdgeStyle;rounded=0;orthogonalLoop=1;jettySize=auto;html=1;" edge="1" parent="WIyWlLk6GJQsqaUBKTNV-1" source="5epUa7cd-4umci63JbzG-42">
          <mxGeometry relative="1" as="geometry">
            <mxPoint x="170" y="690" as="targetPoint" />
          </mxGeometry>
        </mxCell>
        <mxCell id="5epUa7cd-4umci63JbzG-42" value="4&amp;lt;score&amp;lt;=6" style="strokeWidth=2;html=1;shape=mxgraph.flowchart.decision;whiteSpace=wrap;" vertex="1" parent="WIyWlLk6GJQsqaUBKTNV-1">
          <mxGeometry x="120" y="520" width="100" height="100" as="geometry" />
        </mxCell>
        <mxCell id="5epUa7cd-4umci63JbzG-46" value="True" style="text;html=1;align=center;verticalAlign=middle;resizable=0;points=[];autosize=1;strokeColor=none;fillColor=none;" vertex="1" parent="WIyWlLk6GJQsqaUBKTNV-1">
          <mxGeometry x="245" y="528" width="50" height="30" as="geometry" />
        </mxCell>
        <mxCell id="5epUa7cd-4umci63JbzG-68" style="edgeStyle=orthogonalEdgeStyle;rounded=0;orthogonalLoop=1;jettySize=auto;html=1;entryX=0.5;entryY=0;entryDx=0;entryDy=0;entryPerimeter=0;" edge="1" parent="WIyWlLk6GJQsqaUBKTNV-1" source="5epUa7cd-4umci63JbzG-47" target="5epUa7cd-4umci63JbzG-70">
          <mxGeometry relative="1" as="geometry">
            <mxPoint x="720" y="680" as="targetPoint" />
          </mxGeometry>
        </mxCell>
        <mxCell id="5epUa7cd-4umci63JbzG-47" value="Print &quot; Trung bình&quot;" style="strokeWidth=2;html=1;shape=mxgraph.flowchart.display;whiteSpace=wrap;" vertex="1" parent="WIyWlLk6GJQsqaUBKTNV-1">
          <mxGeometry x="355" y="540" width="115" height="60" as="geometry" />
        </mxCell>
        <mxCell id="5epUa7cd-4umci63JbzG-49" value="False" style="text;html=1;align=center;verticalAlign=middle;resizable=0;points=[];autosize=1;strokeColor=none;fillColor=none;" vertex="1" parent="WIyWlLk6GJQsqaUBKTNV-1">
          <mxGeometry x="165" y="638" width="50" height="30" as="geometry" />
        </mxCell>
        <mxCell id="5epUa7cd-4umci63JbzG-51" style="edgeStyle=orthogonalEdgeStyle;rounded=0;orthogonalLoop=1;jettySize=auto;html=1;" edge="1" parent="WIyWlLk6GJQsqaUBKTNV-1" source="5epUa7cd-4umci63JbzG-50" target="5epUa7cd-4umci63JbzG-52">
          <mxGeometry relative="1" as="geometry">
            <mxPoint x="360" y="740" as="targetPoint" />
          </mxGeometry>
        </mxCell>
        <mxCell id="5epUa7cd-4umci63JbzG-54" style="edgeStyle=orthogonalEdgeStyle;rounded=0;orthogonalLoop=1;jettySize=auto;html=1;" edge="1" parent="WIyWlLk6GJQsqaUBKTNV-1" source="5epUa7cd-4umci63JbzG-50">
          <mxGeometry relative="1" as="geometry">
            <mxPoint x="170" y="860" as="targetPoint" />
          </mxGeometry>
        </mxCell>
        <mxCell id="5epUa7cd-4umci63JbzG-50" value="6&amp;lt;score&amp;lt;=8" style="strokeWidth=2;html=1;shape=mxgraph.flowchart.decision;whiteSpace=wrap;" vertex="1" parent="WIyWlLk6GJQsqaUBKTNV-1">
          <mxGeometry x="120" y="690" width="100" height="100" as="geometry" />
        </mxCell>
        <mxCell id="5epUa7cd-4umci63JbzG-69" style="edgeStyle=orthogonalEdgeStyle;rounded=0;orthogonalLoop=1;jettySize=auto;html=1;" edge="1" parent="WIyWlLk6GJQsqaUBKTNV-1" source="5epUa7cd-4umci63JbzG-52" target="5epUa7cd-4umci63JbzG-70">
          <mxGeometry relative="1" as="geometry">
            <mxPoint x="660" y="740" as="targetPoint" />
          </mxGeometry>
        </mxCell>
        <mxCell id="5epUa7cd-4umci63JbzG-52" value="Print &quot;Khá&quot;" style="strokeWidth=2;html=1;shape=mxgraph.flowchart.display;whiteSpace=wrap;" vertex="1" parent="WIyWlLk6GJQsqaUBKTNV-1">
          <mxGeometry x="370" y="710" width="100" height="60" as="geometry" />
        </mxCell>
        <mxCell id="5epUa7cd-4umci63JbzG-53" value="True" style="text;html=1;align=center;verticalAlign=middle;resizable=0;points=[];autosize=1;strokeColor=none;fillColor=none;" vertex="1" parent="WIyWlLk6GJQsqaUBKTNV-1">
          <mxGeometry x="245" y="698" width="50" height="30" as="geometry" />
        </mxCell>
        <mxCell id="5epUa7cd-4umci63JbzG-57" style="edgeStyle=orthogonalEdgeStyle;rounded=0;orthogonalLoop=1;jettySize=auto;html=1;" edge="1" parent="WIyWlLk6GJQsqaUBKTNV-1" source="5epUa7cd-4umci63JbzG-55" target="5epUa7cd-4umci63JbzG-58">
          <mxGeometry relative="1" as="geometry">
            <mxPoint x="370" y="910" as="targetPoint" />
          </mxGeometry>
        </mxCell>
        <mxCell id="5epUa7cd-4umci63JbzG-61" style="edgeStyle=orthogonalEdgeStyle;rounded=0;orthogonalLoop=1;jettySize=auto;html=1;" edge="1" parent="WIyWlLk6GJQsqaUBKTNV-1" source="5epUa7cd-4umci63JbzG-55">
          <mxGeometry relative="1" as="geometry">
            <mxPoint x="170" y="1030" as="targetPoint" />
          </mxGeometry>
        </mxCell>
        <mxCell id="5epUa7cd-4umci63JbzG-55" value="8&amp;lt;score&amp;lt;=9" style="strokeWidth=2;html=1;shape=mxgraph.flowchart.decision;whiteSpace=wrap;" vertex="1" parent="WIyWlLk6GJQsqaUBKTNV-1">
          <mxGeometry x="120" y="860" width="100" height="100" as="geometry" />
        </mxCell>
        <mxCell id="5epUa7cd-4umci63JbzG-56" value="False" style="text;html=1;align=center;verticalAlign=middle;resizable=0;points=[];autosize=1;strokeColor=none;fillColor=none;" vertex="1" parent="WIyWlLk6GJQsqaUBKTNV-1">
          <mxGeometry x="165" y="798" width="50" height="30" as="geometry" />
        </mxCell>
        <mxCell id="5epUa7cd-4umci63JbzG-58" value="Print &quot;Giỏi&quot;" style="strokeWidth=2;html=1;shape=mxgraph.flowchart.display;whiteSpace=wrap;" vertex="1" parent="WIyWlLk6GJQsqaUBKTNV-1">
          <mxGeometry x="370" y="880" width="100" height="60" as="geometry" />
        </mxCell>
        <mxCell id="5epUa7cd-4umci63JbzG-59" style="edgeStyle=orthogonalEdgeStyle;rounded=0;orthogonalLoop=1;jettySize=auto;html=1;entryX=0;entryY=0.5;entryDx=0;entryDy=0;entryPerimeter=0;" edge="1" parent="WIyWlLk6GJQsqaUBKTNV-1" source="5epUa7cd-4umci63JbzG-32" target="5epUa7cd-4umci63JbzG-35">
          <mxGeometry relative="1" as="geometry" />
        </mxCell>
        <mxCell id="5epUa7cd-4umci63JbzG-60" value="True" style="text;html=1;align=center;verticalAlign=middle;resizable=0;points=[];autosize=1;strokeColor=none;fillColor=none;" vertex="1" parent="WIyWlLk6GJQsqaUBKTNV-1">
          <mxGeometry x="245" y="868" width="50" height="30" as="geometry" />
        </mxCell>
        <mxCell id="5epUa7cd-4umci63JbzG-63" style="edgeStyle=orthogonalEdgeStyle;rounded=0;orthogonalLoop=1;jettySize=auto;html=1;" edge="1" parent="WIyWlLk6GJQsqaUBKTNV-1" source="5epUa7cd-4umci63JbzG-62" target="5epUa7cd-4umci63JbzG-64">
          <mxGeometry relative="1" as="geometry">
            <mxPoint x="370" y="1080" as="targetPoint" />
          </mxGeometry>
        </mxCell>
        <mxCell id="5epUa7cd-4umci63JbzG-62" value="9&amp;lt;score&amp;lt;=10" style="strokeWidth=2;html=1;shape=mxgraph.flowchart.decision;whiteSpace=wrap;" vertex="1" parent="WIyWlLk6GJQsqaUBKTNV-1">
          <mxGeometry x="120" y="1030" width="100" height="100" as="geometry" />
        </mxCell>
        <mxCell id="5epUa7cd-4umci63JbzG-64" value="Print &quot; Xuất sắc&quot;" style="strokeWidth=2;html=1;shape=mxgraph.flowchart.display;whiteSpace=wrap;" vertex="1" parent="WIyWlLk6GJQsqaUBKTNV-1">
          <mxGeometry x="370" y="1050" width="100" height="60" as="geometry" />
        </mxCell>
        <mxCell id="5epUa7cd-4umci63JbzG-65" value="True" style="text;html=1;align=center;verticalAlign=middle;resizable=0;points=[];autosize=1;strokeColor=none;fillColor=none;" vertex="1" parent="WIyWlLk6GJQsqaUBKTNV-1">
          <mxGeometry x="245" y="1050" width="50" height="30" as="geometry" />
        </mxCell>
        <mxCell id="5epUa7cd-4umci63JbzG-66" value="False" style="text;html=1;align=center;verticalAlign=middle;resizable=0;points=[];autosize=1;strokeColor=none;fillColor=none;" vertex="1" parent="WIyWlLk6GJQsqaUBKTNV-1">
          <mxGeometry x="165" y="968" width="50" height="30" as="geometry" />
        </mxCell>
        <mxCell id="5epUa7cd-4umci63JbzG-70" value="END" style="strokeWidth=2;html=1;shape=mxgraph.flowchart.start_2;whiteSpace=wrap;" vertex="1" parent="WIyWlLk6GJQsqaUBKTNV-1">
          <mxGeometry x="670" y="690" width="100" height="100" as="geometry" />
        </mxCell>
        <mxCell id="5epUa7cd-4umci63JbzG-71" style="edgeStyle=orthogonalEdgeStyle;rounded=0;orthogonalLoop=1;jettySize=auto;html=1;entryX=0.5;entryY=1;entryDx=0;entryDy=0;entryPerimeter=0;" edge="1" parent="WIyWlLk6GJQsqaUBKTNV-1" source="5epUa7cd-4umci63JbzG-58" target="5epUa7cd-4umci63JbzG-70">
          <mxGeometry relative="1" as="geometry" />
        </mxCell>
        <mxCell id="5epUa7cd-4umci63JbzG-72" style="edgeStyle=orthogonalEdgeStyle;rounded=0;orthogonalLoop=1;jettySize=auto;html=1;entryX=0.5;entryY=1;entryDx=0;entryDy=0;entryPerimeter=0;" edge="1" parent="WIyWlLk6GJQsqaUBKTNV-1" source="5epUa7cd-4umci63JbzG-64" target="5epUa7cd-4umci63JbzG-70">
          <mxGeometry relative="1" as="geometry" />
        </mxCell>
      </root>
    </mxGraphModel>
  </diagram>
</mxfile>
